<?xml version="1.0" standalone="no"?>
<svg xmlns:xlink="http://www.w3.org/1999/xlink" id="wave" style="transform:rotate(0deg); transition: 0.3s" viewBox="0 0 1440 230" version="1.1" xmlns="http://www.w3.org/2000/svg"><defs><linearGradient id="sw-gradient-0" x1="0" x2="0" y1="1" y2="0"><stop stop-color="rgba(27.323, 13.892, 180.236, 1)" offset="0%"/><stop stop-color="rgba(114.481, 203.499, 221.218, 1)" offset="100%"/></linearGradient></defs><path style="transform:translate(0, 0px); opacity:1" fill="url(#sw-gradient-0)" d="M0,184L80,161C160,138,320,92,480,88.2C640,84,800,123,960,141.8C1120,161,1280,161,1440,168.7C1600,176,1760,192,1920,195.5C2080,199,2240,192,2400,191.7C2560,192,2720,199,2880,191.7C3040,184,3200,161,3360,130.3C3520,100,3680,61,3840,57.5C4000,54,4160,84,4320,92C4480,100,4640,84,4800,72.8C4960,61,5120,54,5280,76.7C5440,100,5600,153,5760,168.7C5920,184,6080,161,6240,138C6400,115,6560,92,6720,92C6880,92,7040,115,7200,115C7360,115,7520,92,7680,88.2C7840,84,8000,100,8160,122.7C8320,146,8480,176,8640,187.8C8800,199,8960,192,9120,180.2C9280,169,9440,153,9600,149.5C9760,146,9920,153,10080,138C10240,123,10400,84,10560,69C10720,54,10880,61,11040,69C11200,77,11360,84,11440,88.2L11520,92L11520,230L11440,230C11360,230,11200,230,11040,230C10880,230,10720,230,10560,230C10400,230,10240,230,10080,230C9920,230,9760,230,9600,230C9440,230,9280,230,9120,230C8960,230,8800,230,8640,230C8480,230,8320,230,8160,230C8000,230,7840,230,7680,230C7520,230,7360,230,7200,230C7040,230,6880,230,6720,230C6560,230,6400,230,6240,230C6080,230,5920,230,5760,230C5600,230,5440,230,5280,230C5120,230,4960,230,4800,230C4640,230,4480,230,4320,230C4160,230,4000,230,3840,230C3680,230,3520,230,3360,230C3200,230,3040,230,2880,230C2720,230,2560,230,2400,230C2240,230,2080,230,1920,230C1760,230,1600,230,1440,230C1280,230,1120,230,960,230C800,230,640,230,480,230C320,230,160,230,80,230L0,230Z"/></svg>