<svg width="384" height="512" viewBox="0 0 384 512" fill="none" xmlns="http://www.w3.org/2000/svg">
<path d="M181.939 488.235L181.909 488.197L181.878 488.16C156.044 456.387 114.485 402.093 79.4848 345.138C61.9821 316.656 46.3255 287.839 35.093 261.072C23.7408 234.02 17.5 210.43 17.5 192C17.5 95.625 95.625 17.5 192 17.5C288.337 17.5 366.5 95.6274 366.5 192C366.5 210.406 360.218 233.98 348.795 261.038C337.494 287.806 321.754 316.626 304.191 345.117C269.079 402.073 227.517 456.376 202.047 488.252C196.75 494.822 187.229 494.816 181.939 488.235ZM192 273.5C236.965 273.5 273.5 236.965 273.5 192C273.5 147.035 236.965 110.5 192 110.5C147.035 110.5 110.5 147.035 110.5 192C110.5 236.965 147.035 273.5 192 273.5Z" stroke="#0057FF" stroke-width="35"/>
</svg>
