<svg width="512" height="512" viewBox="0 0 512 512" fill="none" xmlns="http://www.w3.org/2000/svg">
<g clip-path="url(#clip0_1_6)">
<path d="M494.152 383.049L494.156 383.031C495.422 377.593 492.291 369.999 485.412 366.101L377.655 319.91L377.625 319.897L377.595 319.884C372.04 317.478 365.458 319.126 361.706 323.781L361.661 323.836L361.617 323.891L317.537 377.691L308.742 388.425L296.286 382.308C223.571 346.602 164.478 287.51 128.791 214.812L122.614 202.23L133.543 193.454L187.314 150.28C191.989 146.429 193.599 139.891 191.225 134.289C191.222 134.284 191.22 134.278 191.217 134.272L144.751 25.8966C141.965 19.6185 135.303 16.3808 128.971 17.8482L128.962 17.8502L128.953 17.8523L28.1532 41.1023L28.1321 41.1071L28.111 41.1119C21.8632 42.5368 17.5 47.963 17.5 54.5C17.5 297.135 214.864 494.5 457.49 494.52L494.152 383.049ZM494.152 383.049L494.148 383.067M494.152 383.049L494.148 383.067M494.148 383.067L470.898 483.867L470.895 483.879M494.148 383.067L470.895 483.879M470.895 483.879L470.892 483.89M470.895 483.879L470.892 483.89M470.892 483.89C469.454 490.164 464.026 494.519 457.491 494.52L470.892 483.89Z" stroke="#0057FF" stroke-width="35"/>
</g>
<defs>
<clipPath id="clip0_1_6">
<rect width="512" height="512" fill="white"/>
</clipPath>
</defs>
</svg>
